<mxfile host="Electron" agent="Mozilla/5.0 (Windows NT 10.0; Win64; x64) AppleWebKit/537.36 (KHTML, like Gecko) draw.io/24.7.8 Chrome/128.0.6613.36 Electron/32.0.1 Safari/537.36" version="24.7.8" pages="2">
  <diagram id="xlfhTZdnqoDs_rO2_e9n" name="第 2 页">
    <mxGraphModel dx="2244" dy="1137" grid="1" gridSize="10" guides="1" tooltips="1" connect="1" arrows="1" fold="1" page="1" pageScale="1" pageWidth="827" pageHeight="1169" math="0" shadow="0">
      <root>
        <mxCell id="0" />
        <mxCell id="1" parent="0" />
        <mxCell id="ioPA3d6alpLnJGflsYfr-1" value="" style="shape=image;verticalLabelPosition=bottom;labelBackgroundColor=default;verticalAlign=top;aspect=fixed;imageAspect=0;image=https://www.boardinfinity.com/blog/content/images/2022/10/1_41HE7VndppgBEo983hWB6Q.png;" vertex="1" parent="1">
          <mxGeometry x="-140" y="110" width="1200" height="660" as="geometry" />
        </mxCell>
      </root>
    </mxGraphModel>
  </diagram>
  <diagram name="第 1 页" id="2mLmmWY7XnfwCry1R3tD">
    <mxGraphModel dx="2422" dy="2022" grid="1" gridSize="10" guides="1" tooltips="1" connect="1" arrows="1" fold="1" page="1" pageScale="1" pageWidth="827" pageHeight="1169" math="0" shadow="0">
      <root>
        <mxCell id="0" />
        <mxCell id="1" parent="0" />
        <mxCell id="Dx59DCMQFoCkVUQ9Q1jl-1" value="Writer" style="swimlane;fontStyle=1;align=center;verticalAlign=top;childLayout=stackLayout;horizontal=1;startSize=26;horizontalStack=0;resizeParent=1;resizeParentMax=0;resizeLast=0;collapsible=1;marginBottom=0;whiteSpace=wrap;html=1;" vertex="1" parent="1">
          <mxGeometry x="390" y="-37" width="160" height="34" as="geometry" />
        </mxCell>
        <mxCell id="Dx59DCMQFoCkVUQ9Q1jl-3" value="" style="line;strokeWidth=1;fillColor=none;align=left;verticalAlign=middle;spacingTop=-1;spacingLeft=3;spacingRight=3;rotatable=0;labelPosition=right;points=[];portConstraint=eastwest;strokeColor=inherit;" vertex="1" parent="Dx59DCMQFoCkVUQ9Q1jl-1">
          <mxGeometry y="26" width="160" height="8" as="geometry" />
        </mxCell>
        <mxCell id="Dx59DCMQFoCkVUQ9Q1jl-5" value="C# 序列化框架设计" style="text;html=1;align=center;verticalAlign=middle;resizable=0;points=[];autosize=1;strokeColor=none;fillColor=none;" vertex="1" parent="1">
          <mxGeometry x="90" y="-160" width="130" height="30" as="geometry" />
        </mxCell>
        <mxCell id="BNWpzmdATDbWtD4VgMB4-3" value="Reader" style="swimlane;fontStyle=1;align=center;verticalAlign=top;childLayout=stackLayout;horizontal=1;startSize=26;horizontalStack=0;resizeParent=1;resizeParentMax=0;resizeLast=0;collapsible=1;marginBottom=0;whiteSpace=wrap;html=1;" vertex="1" parent="1">
          <mxGeometry x="625" y="-37" width="160" height="34" as="geometry" />
        </mxCell>
        <mxCell id="BNWpzmdATDbWtD4VgMB4-4" value="" style="line;strokeWidth=1;fillColor=none;align=left;verticalAlign=middle;spacingTop=-1;spacingLeft=3;spacingRight=3;rotatable=0;labelPosition=right;points=[];portConstraint=eastwest;strokeColor=inherit;" vertex="1" parent="BNWpzmdATDbWtD4VgMB4-3">
          <mxGeometry y="26" width="160" height="8" as="geometry" />
        </mxCell>
        <mxCell id="BNWpzmdATDbWtD4VgMB4-5" value="Serializer" style="swimlane;fontStyle=1;align=center;verticalAlign=top;childLayout=stackLayout;horizontal=1;startSize=26;horizontalStack=0;resizeParent=1;resizeParentMax=0;resizeLast=0;collapsible=1;marginBottom=0;whiteSpace=wrap;html=1;" vertex="1" parent="1">
          <mxGeometry x="125" y="-50" width="160" height="60" as="geometry" />
        </mxCell>
        <mxCell id="BNWpzmdATDbWtD4VgMB4-36" value="AddSerializer()" style="text;strokeColor=none;fillColor=none;align=right;verticalAlign=top;spacingLeft=4;spacingRight=4;overflow=hidden;rotatable=0;points=[[0,0.5],[1,0.5]];portConstraint=eastwest;whiteSpace=wrap;html=1;" vertex="1" parent="BNWpzmdATDbWtD4VgMB4-5">
          <mxGeometry y="26" width="160" height="26" as="geometry" />
        </mxCell>
        <mxCell id="BNWpzmdATDbWtD4VgMB4-6" value="" style="line;strokeWidth=1;fillColor=none;align=left;verticalAlign=middle;spacingTop=-1;spacingLeft=3;spacingRight=3;rotatable=0;labelPosition=right;points=[];portConstraint=eastwest;strokeColor=inherit;" vertex="1" parent="BNWpzmdATDbWtD4VgMB4-5">
          <mxGeometry y="52" width="160" height="8" as="geometry" />
        </mxCell>
        <mxCell id="BNWpzmdATDbWtD4VgMB4-12" value="&lt;span style=&quot;font-weight: 400; text-align: left;&quot;&gt;ArraySerializer&lt;/span&gt;" style="swimlane;fontStyle=1;align=center;verticalAlign=top;childLayout=stackLayout;horizontal=1;startSize=26;horizontalStack=0;resizeParent=1;resizeParentMax=0;resizeLast=0;collapsible=1;marginBottom=0;whiteSpace=wrap;html=1;" vertex="1" parent="1">
          <mxGeometry x="190" y="190" width="160" height="34" as="geometry" />
        </mxCell>
        <mxCell id="BNWpzmdATDbWtD4VgMB4-13" value="" style="line;strokeWidth=1;fillColor=none;align=left;verticalAlign=middle;spacingTop=-1;spacingLeft=3;spacingRight=3;rotatable=0;labelPosition=right;points=[];portConstraint=eastwest;strokeColor=inherit;" vertex="1" parent="BNWpzmdATDbWtD4VgMB4-12">
          <mxGeometry y="26" width="160" height="8" as="geometry" />
        </mxCell>
        <mxCell id="BNWpzmdATDbWtD4VgMB4-14" value="&lt;div style=&quot;text-align: left;&quot;&gt;&lt;span style=&quot;background-color: initial; font-weight: 400;&quot;&gt;ClassSerializer&lt;/span&gt;&lt;/div&gt;" style="swimlane;fontStyle=1;align=center;verticalAlign=top;childLayout=stackLayout;horizontal=1;startSize=26;horizontalStack=0;resizeParent=1;resizeParentMax=0;resizeLast=0;collapsible=1;marginBottom=0;whiteSpace=wrap;html=1;" vertex="1" parent="1">
          <mxGeometry x="190" y="270" width="160" height="34" as="geometry" />
        </mxCell>
        <mxCell id="BNWpzmdATDbWtD4VgMB4-15" value="" style="line;strokeWidth=1;fillColor=none;align=left;verticalAlign=middle;spacingTop=-1;spacingLeft=3;spacingRight=3;rotatable=0;labelPosition=right;points=[];portConstraint=eastwest;strokeColor=inherit;" vertex="1" parent="BNWpzmdATDbWtD4VgMB4-14">
          <mxGeometry y="26" width="160" height="8" as="geometry" />
        </mxCell>
        <mxCell id="BNWpzmdATDbWtD4VgMB4-16" value="&lt;div style=&quot;text-align: left;&quot;&gt;&lt;span style=&quot;font-weight: 400;&quot;&gt;DictionarySerializer&lt;/span&gt;&lt;br&gt;&lt;/div&gt;" style="swimlane;fontStyle=1;align=center;verticalAlign=top;childLayout=stackLayout;horizontal=1;startSize=26;horizontalStack=0;resizeParent=1;resizeParentMax=0;resizeLast=0;collapsible=1;marginBottom=0;whiteSpace=wrap;html=1;" vertex="1" parent="1">
          <mxGeometry x="190" y="340" width="160" height="34" as="geometry" />
        </mxCell>
        <mxCell id="BNWpzmdATDbWtD4VgMB4-17" value="" style="line;strokeWidth=1;fillColor=none;align=left;verticalAlign=middle;spacingTop=-1;spacingLeft=3;spacingRight=3;rotatable=0;labelPosition=right;points=[];portConstraint=eastwest;strokeColor=inherit;" vertex="1" parent="BNWpzmdATDbWtD4VgMB4-16">
          <mxGeometry y="26" width="160" height="8" as="geometry" />
        </mxCell>
        <mxCell id="BNWpzmdATDbWtD4VgMB4-18" value="&lt;div style=&quot;text-align: left;&quot;&gt;&lt;span style=&quot;font-weight: 400;&quot;&gt;EnumSerializer&lt;/span&gt;&lt;br&gt;&lt;/div&gt;" style="swimlane;fontStyle=1;align=center;verticalAlign=top;childLayout=stackLayout;horizontal=1;startSize=26;horizontalStack=0;resizeParent=1;resizeParentMax=0;resizeLast=0;collapsible=1;marginBottom=0;whiteSpace=wrap;html=1;" vertex="1" parent="1">
          <mxGeometry x="190" y="410" width="160" height="34" as="geometry" />
        </mxCell>
        <mxCell id="BNWpzmdATDbWtD4VgMB4-19" value="" style="line;strokeWidth=1;fillColor=none;align=left;verticalAlign=middle;spacingTop=-1;spacingLeft=3;spacingRight=3;rotatable=0;labelPosition=right;points=[];portConstraint=eastwest;strokeColor=inherit;" vertex="1" parent="BNWpzmdATDbWtD4VgMB4-18">
          <mxGeometry y="26" width="160" height="8" as="geometry" />
        </mxCell>
        <mxCell id="BNWpzmdATDbWtD4VgMB4-20" value="«interface»&lt;br&gt;&lt;b&gt;ISerializeValue&lt;/b&gt;" style="html=1;whiteSpace=wrap;" vertex="1" parent="1">
          <mxGeometry x="650" y="254" width="110" height="50" as="geometry" />
        </mxCell>
        <mxCell id="BNWpzmdATDbWtD4VgMB4-21" value="«interface»&lt;br&gt;&lt;b&gt;ISerializable&lt;/b&gt;" style="html=1;whiteSpace=wrap;" vertex="1" parent="1">
          <mxGeometry x="450" y="254" width="110" height="50" as="geometry" />
        </mxCell>
        <mxCell id="BNWpzmdATDbWtD4VgMB4-22" value="«interface»&lt;br&gt;&lt;b&gt;IBlobArchive&lt;/b&gt;" style="html=1;whiteSpace=wrap;" vertex="1" parent="1">
          <mxGeometry x="860" y="254" width="110" height="50" as="geometry" />
        </mxCell>
        <mxCell id="BNWpzmdATDbWtD4VgMB4-23" value="&lt;div style=&quot;text-align: left;&quot;&gt;&lt;span style=&quot;font-weight: 400;&quot;&gt;InterfaceSerializer&lt;/span&gt;&lt;br&gt;&lt;/div&gt;" style="swimlane;fontStyle=1;align=center;verticalAlign=top;childLayout=stackLayout;horizontal=1;startSize=26;horizontalStack=0;resizeParent=1;resizeParentMax=0;resizeLast=0;collapsible=1;marginBottom=0;whiteSpace=wrap;html=1;" vertex="1" parent="1">
          <mxGeometry x="190" y="470" width="160" height="34" as="geometry" />
        </mxCell>
        <mxCell id="BNWpzmdATDbWtD4VgMB4-24" value="" style="line;strokeWidth=1;fillColor=none;align=left;verticalAlign=middle;spacingTop=-1;spacingLeft=3;spacingRight=3;rotatable=0;labelPosition=right;points=[];portConstraint=eastwest;strokeColor=inherit;" vertex="1" parent="BNWpzmdATDbWtD4VgMB4-23">
          <mxGeometry y="26" width="160" height="8" as="geometry" />
        </mxCell>
        <mxCell id="BNWpzmdATDbWtD4VgMB4-25" value="&lt;div style=&quot;text-align: left;&quot;&gt;&lt;span style=&quot;font-weight: 400;&quot;&gt;ListSerializer&lt;/span&gt;&lt;br&gt;&lt;/div&gt;" style="swimlane;fontStyle=1;align=center;verticalAlign=top;childLayout=stackLayout;horizontal=1;startSize=26;horizontalStack=0;resizeParent=1;resizeParentMax=0;resizeLast=0;collapsible=1;marginBottom=0;whiteSpace=wrap;html=1;" vertex="1" parent="1">
          <mxGeometry x="190" y="530" width="160" height="34" as="geometry" />
        </mxCell>
        <mxCell id="BNWpzmdATDbWtD4VgMB4-26" value="" style="line;strokeWidth=1;fillColor=none;align=left;verticalAlign=middle;spacingTop=-1;spacingLeft=3;spacingRight=3;rotatable=0;labelPosition=right;points=[];portConstraint=eastwest;strokeColor=inherit;" vertex="1" parent="BNWpzmdATDbWtD4VgMB4-25">
          <mxGeometry y="26" width="160" height="8" as="geometry" />
        </mxCell>
        <mxCell id="BNWpzmdATDbWtD4VgMB4-27" value="&lt;div style=&quot;text-align: left;&quot;&gt;&lt;span style=&quot;font-weight: 400;&quot;&gt;NullableSerializer&lt;/span&gt;&lt;br&gt;&lt;/div&gt;" style="swimlane;fontStyle=1;align=center;verticalAlign=top;childLayout=stackLayout;horizontal=1;startSize=26;horizontalStack=0;resizeParent=1;resizeParentMax=0;resizeLast=0;collapsible=1;marginBottom=0;whiteSpace=wrap;html=1;" vertex="1" parent="1">
          <mxGeometry x="190" y="600" width="160" height="34" as="geometry" />
        </mxCell>
        <mxCell id="BNWpzmdATDbWtD4VgMB4-28" value="" style="line;strokeWidth=1;fillColor=none;align=left;verticalAlign=middle;spacingTop=-1;spacingLeft=3;spacingRight=3;rotatable=0;labelPosition=right;points=[];portConstraint=eastwest;strokeColor=inherit;" vertex="1" parent="BNWpzmdATDbWtD4VgMB4-27">
          <mxGeometry y="26" width="160" height="8" as="geometry" />
        </mxCell>
        <mxCell id="BNWpzmdATDbWtD4VgMB4-29" value="&lt;div style=&quot;text-align: left;&quot;&gt;&lt;span style=&quot;font-weight: 400;&quot;&gt;SerializationContext&lt;/span&gt;&lt;br&gt;&lt;/div&gt;" style="swimlane;fontStyle=1;align=center;verticalAlign=top;childLayout=stackLayout;horizontal=1;startSize=26;horizontalStack=0;resizeParent=1;resizeParentMax=0;resizeLast=0;collapsible=1;marginBottom=0;whiteSpace=wrap;html=1;" vertex="1" parent="1">
          <mxGeometry x="870" y="-37" width="160" height="34" as="geometry" />
        </mxCell>
        <mxCell id="BNWpzmdATDbWtD4VgMB4-30" value="" style="line;strokeWidth=1;fillColor=none;align=left;verticalAlign=middle;spacingTop=-1;spacingLeft=3;spacingRight=3;rotatable=0;labelPosition=right;points=[];portConstraint=eastwest;strokeColor=inherit;" vertex="1" parent="BNWpzmdATDbWtD4VgMB4-29">
          <mxGeometry y="26" width="160" height="8" as="geometry" />
        </mxCell>
        <mxCell id="BNWpzmdATDbWtD4VgMB4-40" value="&lt;p style=&quot;margin:0px;margin-top:4px;text-align:center;&quot;&gt;&lt;i&gt;&amp;lt;&amp;lt;Interface&amp;gt;&amp;gt;&lt;/i&gt;&lt;br&gt;&lt;b&gt;ISerializer&lt;/b&gt;&lt;br&gt;&lt;/p&gt;&lt;hr size=&quot;1&quot; style=&quot;border-style:solid;&quot;&gt;&lt;p style=&quot;text-align: right; margin: 0px 0px 0px 4px;&quot;&gt;&lt;span style=&quot;background-color: initial;&quot;&gt;Write()&amp;nbsp; &amp;nbsp;&lt;/span&gt;&lt;/p&gt;&lt;p style=&quot;text-align: right; margin: 0px 0px 0px 4px;&quot;&gt;Read()&amp;nbsp; &amp;nbsp;&lt;/p&gt;" style="verticalAlign=top;align=left;overflow=fill;html=1;whiteSpace=wrap;" vertex="1" parent="1">
          <mxGeometry x="110" y="40" width="190" height="80" as="geometry" />
        </mxCell>
        <mxCell id="BNWpzmdATDbWtD4VgMB4-51" value="" style="group" vertex="1" connectable="0" parent="1">
          <mxGeometry x="-60" y="290" width="210" height="200" as="geometry" />
        </mxCell>
        <mxCell id="BNWpzmdATDbWtD4VgMB4-32" value="&lt;div style=&quot;text-align: left;&quot;&gt;StandardSerializerString&lt;br&gt;&lt;/div&gt;" style="swimlane;fontStyle=1;align=center;verticalAlign=top;childLayout=stackLayout;horizontal=1;startSize=26;horizontalStack=0;resizeParent=1;resizeParentMax=0;resizeLast=0;collapsible=1;marginBottom=0;whiteSpace=wrap;html=1;" vertex="1" parent="BNWpzmdATDbWtD4VgMB4-51">
          <mxGeometry x="25" y="43" width="160" height="34" as="geometry" />
        </mxCell>
        <mxCell id="BNWpzmdATDbWtD4VgMB4-33" value="" style="line;strokeWidth=1;fillColor=none;align=left;verticalAlign=middle;spacingTop=-1;spacingLeft=3;spacingRight=3;rotatable=0;labelPosition=right;points=[];portConstraint=eastwest;strokeColor=inherit;" vertex="1" parent="BNWpzmdATDbWtD4VgMB4-32">
          <mxGeometry y="26" width="160" height="8" as="geometry" />
        </mxCell>
        <mxCell id="BNWpzmdATDbWtD4VgMB4-34" value="&lt;span style=&quot;text-align: left;&quot;&gt;StandardSerializers&lt;/span&gt;" style="shape=umlFrame;whiteSpace=wrap;html=1;pointerEvents=0;width=130;height=30;" vertex="1" parent="BNWpzmdATDbWtD4VgMB4-51">
          <mxGeometry width="210" height="200" as="geometry" />
        </mxCell>
        <mxCell id="BNWpzmdATDbWtD4VgMB4-42" value="&lt;div style=&quot;text-align: left;&quot;&gt;StandardSerializerChar&lt;br&gt;&lt;/div&gt;" style="swimlane;fontStyle=1;align=center;verticalAlign=top;childLayout=stackLayout;horizontal=1;startSize=26;horizontalStack=0;resizeParent=1;resizeParentMax=0;resizeLast=0;collapsible=1;marginBottom=0;whiteSpace=wrap;html=1;" vertex="1" parent="BNWpzmdATDbWtD4VgMB4-51">
          <mxGeometry x="25" y="90" width="160" height="34" as="geometry" />
        </mxCell>
        <mxCell id="BNWpzmdATDbWtD4VgMB4-43" value="" style="line;strokeWidth=1;fillColor=none;align=left;verticalAlign=middle;spacingTop=-1;spacingLeft=3;spacingRight=3;rotatable=0;labelPosition=right;points=[];portConstraint=eastwest;strokeColor=inherit;" vertex="1" parent="BNWpzmdATDbWtD4VgMB4-42">
          <mxGeometry y="26" width="160" height="8" as="geometry" />
        </mxCell>
        <mxCell id="BNWpzmdATDbWtD4VgMB4-44" value="&lt;div style=&quot;text-align: left;&quot;&gt;Byte&lt;br&gt;&lt;/div&gt;" style="swimlane;fontStyle=1;align=center;verticalAlign=top;childLayout=stackLayout;horizontal=1;startSize=26;horizontalStack=0;resizeParent=1;resizeParentMax=0;resizeLast=0;collapsible=1;marginBottom=0;whiteSpace=wrap;html=1;" vertex="1" parent="BNWpzmdATDbWtD4VgMB4-51">
          <mxGeometry x="25" y="140" width="50" height="34" as="geometry" />
        </mxCell>
        <mxCell id="BNWpzmdATDbWtD4VgMB4-45" value="" style="line;strokeWidth=1;fillColor=none;align=left;verticalAlign=middle;spacingTop=-1;spacingLeft=3;spacingRight=3;rotatable=0;labelPosition=right;points=[];portConstraint=eastwest;strokeColor=inherit;" vertex="1" parent="BNWpzmdATDbWtD4VgMB4-44">
          <mxGeometry y="26" width="50" height="8" as="geometry" />
        </mxCell>
        <mxCell id="BNWpzmdATDbWtD4VgMB4-46" value="&lt;div style=&quot;text-align: left;&quot;&gt;Float&lt;br&gt;&lt;/div&gt;" style="swimlane;fontStyle=1;align=center;verticalAlign=top;childLayout=stackLayout;horizontal=1;startSize=26;horizontalStack=0;resizeParent=1;resizeParentMax=0;resizeLast=0;collapsible=1;marginBottom=0;whiteSpace=wrap;html=1;" vertex="1" parent="BNWpzmdATDbWtD4VgMB4-51">
          <mxGeometry x="80" y="140" width="50" height="34" as="geometry" />
        </mxCell>
        <mxCell id="BNWpzmdATDbWtD4VgMB4-47" value="" style="line;strokeWidth=1;fillColor=none;align=left;verticalAlign=middle;spacingTop=-1;spacingLeft=3;spacingRight=3;rotatable=0;labelPosition=right;points=[];portConstraint=eastwest;strokeColor=inherit;" vertex="1" parent="BNWpzmdATDbWtD4VgMB4-46">
          <mxGeometry y="26" width="50" height="8" as="geometry" />
        </mxCell>
        <mxCell id="BNWpzmdATDbWtD4VgMB4-48" value="&lt;div style=&quot;text-align: left;&quot;&gt;+11&lt;br&gt;&lt;/div&gt;" style="swimlane;fontStyle=1;align=center;verticalAlign=top;childLayout=stackLayout;horizontal=1;startSize=26;horizontalStack=0;resizeParent=1;resizeParentMax=0;resizeLast=0;collapsible=1;marginBottom=0;whiteSpace=wrap;html=1;" vertex="1" parent="BNWpzmdATDbWtD4VgMB4-51">
          <mxGeometry x="135" y="140" width="50" height="34" as="geometry" />
        </mxCell>
        <mxCell id="BNWpzmdATDbWtD4VgMB4-49" value="" style="line;strokeWidth=1;fillColor=none;align=left;verticalAlign=middle;spacingTop=-1;spacingLeft=3;spacingRight=3;rotatable=0;labelPosition=right;points=[];portConstraint=eastwest;strokeColor=inherit;" vertex="1" parent="BNWpzmdATDbWtD4VgMB4-48">
          <mxGeometry y="26" width="50" height="8" as="geometry" />
        </mxCell>
        <mxCell id="BNWpzmdATDbWtD4VgMB4-52" value="Object" style="html=1;whiteSpace=wrap;" vertex="1" parent="1">
          <mxGeometry x="760" y="504" width="110" height="50" as="geometry" />
        </mxCell>
        <mxCell id="BNWpzmdATDbWtD4VgMB4-53" value="要点：&lt;div&gt;1. 核心功能，各种类型的序列化和反序列化&lt;/div&gt;&lt;div&gt;2.&amp;nbsp;&lt;/div&gt;" style="text;html=1;align=center;verticalAlign=middle;resizable=0;points=[];autosize=1;strokeColor=none;fillColor=none;" vertex="1" parent="1">
          <mxGeometry x="270" y="-215" width="250" height="60" as="geometry" />
        </mxCell>
      </root>
    </mxGraphModel>
  </diagram>
</mxfile>
